<!DOCTYPE svg PUBLIC "-//W3C//DTD SVG 1.1//EN" "http://www.w3.org/Graphics/SVG/1.1/DTD/svg11.dtd">
<!-- Uploaded to: SVG Repo, www.svgrepo.com, Transformed by: SVG Repo Mixer Tools -->
<svg width="800px" height="800px" viewBox="0 0 192 192" xmlns="http://www.w3.org/2000/svg" fill="#000000">
<g id="SVGRepo_bgCarrier" stroke-width="0"/>
<g id="SVGRepo_tracerCarrier" stroke-linecap="round" stroke-linejoin="round"/>
<g id="SVGRepo_iconCarrier"> <g fill="none" stroke="#ffffff" stroke-width="12"> <path stroke-linecap="round" stroke-linejoin="round" d="M122.45 77.03v38.12c20.23 0 25.41-1.72 25.41-9.9 0-7.61-8.54-10.6-25.41-10.6 16.87 0 23.95-.63 23.95-8.8 0-8.25-7.08-8.82-23.95-8.82z" transform="matrix(1.27698 0 0 1.32706 -18.66 -31.45)"/> <path stroke-linejoin="round" d="M84.19 77.03v38.12c20.23 0 25.41-1.72 25.41-9.9 0-7.61-8.54-10.6-25.41-10.6 16.87 0 23.95-.63 23.95-8.8 0-8.25-7.08-8.82-23.95-8.82z" transform="matrix(1.27698 0 0 1.32706 -18.66 -31.45)"/> <path stroke-linecap="round" stroke-linejoin="round" d="M71.34 95.65a19.8 18.71 0 0 1-12.23 17.29 19.8 18.71 0 0 1-21.58-4.06 19.8 18.71 0 0 1-4.3-20.4 19.8 18.71 0 0 1 18.3-11.54" transform="matrix(1.27698 0 0 1.32706 -18.66 -31.45)"/> <path stroke-linecap="round" d="M57.78 90.5 71.3 76.98" transform="matrix(1.27698 0 0 1.32706 -18.66 -31.45)"/> </g> </g>
</svg>